<?xml version="1.0" encoding="UTF-8"?>
<svg id="Layer_1" data-name="Layer 1" xmlns="http://www.w3.org/2000/svg" viewBox="0 0 394.97 284.92">
  <defs>
    <style>
      .cls-1 {
        fill: #fff;
      }

      .cls-2 {
        fill: none;
        stroke: #000;
        stroke-miterlimit: 10;
        stroke-width: 5px;
      }
    </style>
  </defs>
  <g>
    <path class="cls-1" d="M496.01-158.06V439.3H-101.35V-158.06H496.01ZM346.73,94.96c-.75-.4-1.52-.61-2.38-.54-3.59.3-9.19,2.47-13.15,3.19-52.43,9.61-75.52-16.24-120.9-29.12-20.26-5.75-46.69.55-64.72,10.76-7.34,4.16-16.25,9.99-12.64,19.69-41.71,7.08-84.38,2.74-126.47,4.37l-1.03,1.77c.17,2.07,6.03,1.99,7.71,2.06,26.36,1.09,57.56,1.01,83.94-.04,13.57-.54,26.56-3.72,39.64-4.65,7.19-.51,13.49-.12,20.9-1.25,14.19-2.17,39.41-13.05,51.79-10.25,10.24,2.32,27.75,20.49,35.73,28.38,11.15,11.04,37.36,38.35,39.77,53.48,1.57,9.87-4.58,16.27-12.7,8.62-4.66-4.39-9.78-15.67-14.06-21.49-9.65-13.12-23.84-24.99-36.82-34.65-1.85.27-2.43,1.95-1.58,3.53,15.17,12.11,29.51,23.98,39.91,40.68,1.67,2.68,5.48,8.46,5.63,11.3.35,6.7-6.57,16.22-14.07,14.04-2.07-14.8-15.18-27.38-25.6-37.34-5.8-5.55-14.99-14.44-21.28-18.93-3.46-2.46-5.65.24-3.46,2.87,12.18,10.75,25.73,21.26,36.1,33.83,5.83,7.06,15.72,20.76,4.91,28.24-8.27,5.72-7.24-1.62-9.98-6.84-5.68-10.84-32.72-35.46-43.42-42.25-2.87-1.82-6.16-3.35-4.53,1.59,13.9,11.5,31.78,24.63,42.12,39.49,3.14,4.52,6.77,13-1.04,15.06-11.29,2.99-23.98-16.09-35-18.06-1.13-1.1-.34-3.68-.57-5.26-1.03-6.83-3.98-13.01-11.96-12.58-2.68.14-4.31,1.64-6.68,2.37,1.86-15.91-10.96-26.51-23.31-12.82.23-13.27-13.64-18.21-22.75-8.47-1.77,1.89-2.63,4.47-4.64,6.13-.46-9.81-12.11-18.95-20.12-9.91-5.09,5.74-5.6,14.91-4.95,22.15-13.47-2.18-26.12-.3-39.17,3.08-3.03.78-11.14,2.67-13.42,3.91-1.58.86-1.17,3.94.89,3.95s9.35-2.87,12.17-3.56c11.74-2.86,25.95-5.83,37.91-3.14,4.3.97,2.44,1.28,4.53,3.62,5.43,6.08,11.58,8.09,19.23,4.37,2.3,10.22,12.83,16.63,22.75,11.93,5.34,8.36,15.41,11.88,24.1,6.18,1.72,1.29,2.37,3.42,3.84,4.94,8.61,8.87,28.52,3.94,38.2-1.28,6.57,4.42,13.89,9.14,22.09,5.57,2.21-.96,4.11-4.1,5.42-4.49,1.61-.48,3.85.07,5.66-.17,5.5-.74,8.76-5.32,11.2-9.78,9.31,1.11,16.81-5.78,18.29-14.65,2.71.5,4.66,3.38,7.41,3.95,9.78,2.01,13.22-5.6,13.94-13.89,3.1-.35,6.74-1.01,9.8-1.16,28.15-1.38,57.43,1.07,85.7.03l2.92-1.16.03-2.39-99.62.55c-2.08-3.51-3.36-7.4-5.31-11-11.17-20.62-35.49-44.22-53.03-60.03-22.47-20.25-29.53-13.21-55.55-6.56-9.1,2.33-24.57,6.44-33.64,5.41-8.1-.92-4.98-7.39-.6-11.09,14.54-12.25,47.9-19.93,66.17-15.44,21.29,5.24,44.44,19.22,65.87,26.21,24.41,7.96,49.6,8.07,73.89-.37l.02-2.73Z"/>
    <path d="M346.73,94.96l-.02,2.73c-24.29,8.44-49.47,8.33-73.89.37-21.43-6.99-44.58-20.97-65.87-26.21-18.26-4.5-51.62,3.18-66.17,15.44-4.39,3.69-7.5,10.16.6,11.09,9.06,1.03,24.54-3.08,33.64-5.41,26.02-6.65,33.08-13.69,55.55,6.56,17.54,15.81,41.85,39.41,53.03,60.03,1.95,3.6,3.23,7.49,5.31,11l99.62-.55-.03,2.39-2.92,1.16c-28.27,1.04-57.55-1.41-85.7-.03-3.07.15-6.7.81-9.8,1.16-.72,8.29-4.15,15.9-13.94,13.89-2.75-.57-4.7-3.45-7.41-3.95-1.47,8.87-8.98,15.75-18.29,14.65-2.44,4.47-5.7,9.04-11.2,9.78-1.8.24-4.05-.31-5.66.17-1.31.39-3.21,3.52-5.42,4.49-8.2,3.57-15.52-1.14-22.09-5.57-9.68,5.22-29.59,10.15-38.2,1.28-1.47-1.51-2.11-3.65-3.84-4.94-8.69,5.7-18.77,2.18-24.1-6.18-9.91,4.7-20.45-1.71-22.75-11.93-7.64,3.73-13.8,1.71-19.23-4.37-2.09-2.34-.23-2.66-4.53-3.62-11.95-2.69-26.17.28-37.91,3.14-2.83.69-10.1,3.57-12.17,3.56s-2.47-3.09-.89-3.95c2.29-1.24,10.39-3.13,13.42-3.91,13.05-3.38,25.71-5.26,39.17-3.08-.65-7.24-.14-16.41,4.95-22.15,8.01-9.04,19.66.11,20.12,9.91,2.01-1.66,2.87-4.24,4.64-6.13,9.11-9.74,22.98-4.81,22.75,8.47,12.35-13.69,25.17-3.1,23.31,12.82,2.37-.74,4-2.23,6.68-2.37,7.97-.43,10.93,5.76,11.96,12.58.24,1.57-.56,4.16.57,5.26,11.02,1.98,23.71,21.05,35,18.06,7.81-2.07,4.18-10.54,1.04-15.06-10.34-14.86-28.22-27.99-42.12-39.49-1.64-4.94,1.66-3.41,4.53-1.59,10.7,6.8,37.74,31.42,43.42,42.25,2.74,5.23,1.71,12.56,9.98,6.84,10.82-7.48.92-21.18-4.91-28.24-10.37-12.56-23.93-23.08-36.1-33.83-2.2-2.63,0-5.34,3.46-2.87,6.29,4.48,15.48,13.38,21.28,18.93,10.41,9.96,23.53,22.54,25.6,37.34,7.5,2.18,14.42-7.34,14.07-14.04-.15-2.84-3.96-8.62-5.63-11.3-10.4-16.7-24.73-28.57-39.91-40.68-.85-1.58-.26-3.26,1.58-3.53,12.98,9.66,27.17,21.52,36.82,34.65,4.28,5.82,9.4,17.1,14.06,21.49,8.12,7.65,14.27,1.25,12.7-8.62-2.4-15.14-28.61-42.44-39.77-53.48-7.97-7.89-25.49-26.06-35.73-28.38-12.38-2.8-37.6,8.08-51.79,10.25-7.41,1.13-13.71.74-20.9,1.25-13.09.93-26.07,4.11-39.64,4.65-26.38,1.05-57.58,1.12-83.94.04-1.68-.07-7.54.02-7.71-2.06l1.03-1.77c42.09-1.63,84.76,2.72,126.47-4.37-3.61-9.7,5.3-15.53,12.64-19.69,18.03-10.21,44.47-16.51,64.72-10.76,45.38,12.89,68.46,38.73,120.9,29.12,3.96-.73,9.55-2.89,13.15-3.19.86-.07,1.64.14,2.38.54ZM105.95,152.69c-6.62,1.52-7.49,15.84-6.77,21.1.78,5.69,5.85,10.72,11.82,10.2,5.32-.47,5.89-3.73,6.22-8.37.49-6.94-.1-25.49-11.27-22.92ZM135.56,154.63c-9.8-.22-14.56,16.72-14.86,24.46-.29,7.35,2.97,15.89,11.36,16.61,9.28.8,6.16-5.49,6.86-11.79.84-7.57,6.73-16.53,4.05-23.6-1.23-3.23-3.82-5.6-7.41-5.68ZM162.44,200.15c1.94-2.13,1.55-7.81,2.11-11,1.27-7.18,4.7-17.5-.16-24.05-5.07-6.81-11.71-1.12-15.39,3.83-5.56,7.47-9.7,23.02-2.57,30.45,4.01,4.18,11.9,5.28,16.01.76ZM188.32,196.88c.33,2.38-2.58,9.08-5,5.23-.66-1.05,1.96-9.51,2.08-11.93.59-11.76-10.22-16.28-15.29-4.8-2.51,5.68-4.03,16.58.9,21.19,7.71,7.2,23.22,2.21,31.85-.97-.97-2.54-13.06-9.98-14.55-8.72Z"/>
    <path class="cls-1" d="M162.44,200.15c-4.11,4.51-12,3.42-16.01-.76-7.13-7.43-2.99-22.98,2.57-30.45,3.68-4.95,10.32-10.65,15.39-3.83,4.86,6.54,1.44,16.86.16,24.05-.57,3.19-.17,8.87-2.11,11Z"/>
    <path class="cls-1" d="M135.56,154.63c3.58.08,6.18,2.46,7.41,5.68,2.69,7.07-3.2,16.03-4.05,23.6-.7,6.3,2.42,12.59-6.86,11.79-8.38-.72-11.65-9.26-11.36-16.61.31-7.74,5.06-24.68,14.86-24.46Z"/>
    <path class="cls-1" d="M188.32,196.88c1.48-1.27,13.58,6.17,14.55,8.72-8.63,3.18-24.14,8.17-31.85.97-4.94-4.61-3.41-15.51-.9-21.19,5.07-11.48,15.89-6.96,15.29,4.8-.12,2.42-2.74,10.88-2.08,11.93,2.42,3.85,5.33-2.85,5-5.23Z"/>
    <path class="cls-1" d="M105.95,152.69c11.17-2.57,11.76,15.98,11.27,22.92-.33,4.65-.9,7.91-6.22,8.37-5.97.52-11.04-4.5-11.82-10.2-.72-5.26.16-19.57,6.77-21.1Z"/>
  </g>
  <circle class="cls-2" cx="197.33" cy="140.62" r="132.85"/>
</svg>