<?xml version="1.0" encoding="UTF-8"?>
<svg id="Layer_1" data-name="Layer 1" xmlns="http://www.w3.org/2000/svg" viewBox="0 0 383.09 270.7">
  <defs>
    <style>
      .cls-1 {
        fill: #f4f4fa;
      }

      .cls-2 {
        fill: none;
        stroke: #f9f9fa;
        stroke-miterlimit: 10;
        stroke-width: 5px;
      }
    </style>
  </defs>
  <path class="cls-1" d="M341.3,89.65l-.02,2.73c-26.87,9.49-53.4,7.85-79.89-1.79-23.66-8.61-53.8-27.13-78.84-25.53-12.61.81-37.47,8.72-47.2,16.91-4.39,3.69-7.5,10.16.6,11.09,9.06,1.03,24.54-3.08,33.64-5.41,26.02-6.65,33.08-13.69,55.55,6.56,17.54,15.81,41.85,39.41,53.03,60.03,1.95,3.6,3.23,7.49,5.31,11l99.62-.55-.03,2.39-2.92,1.16c-28.27,1.04-57.55-1.41-85.7-.03-3.07.15-6.7.81-9.8,1.16-.72,8.29-4.15,15.9-13.94,13.89-2.75-.57-4.7-3.45-7.41-3.95-1.47,8.86-8.97,15.75-18.29,14.65-2.44,4.47-5.7,9.04-11.2,9.78-1.8.24-4.05-.31-5.66.17-1.18.35-3.02,3.16-4.66,4.08-7.91,4.48-16.36-.72-22.85-5.16-9.5,5.12-28.82,9.93-37.6,1.85-1.84-1.7-2.55-3.94-4.43-5.51-9.06,5.87-18.64,1.92-24.4-6.29-9.55,5.07-20.32-1.93-22.45-11.82-7.64,3.73-13.8,1.71-19.23-4.37-2.09-2.34-.23-2.66-4.53-3.62-11.95-2.69-26.17.28-37.91,3.14-2.83.69-10.1,3.57-12.17,3.56s-2.47-3.09-.89-3.95c2.29-1.24,10.39-3.13,13.42-3.91,13.05-3.38,25.71-5.26,39.17-3.08-.65-7.24-.14-16.41,4.95-22.15,8.01-9.04,19.66.11,20.12,9.91,2.01-1.66,2.87-4.24,4.64-6.13,9.11-9.74,22.98-4.81,22.75,8.47,12.35-13.69,25.17-3.1,23.31,12.82,2.37-.74,4-2.23,6.68-2.37,7.97-.43,10.93,5.76,11.96,12.58.24,1.57-.56,4.16.57,5.26,11.02,1.98,23.71,21.05,35,18.06,7.81-2.07,4.18-10.54,1.04-15.06-10.34-14.86-28.22-27.99-42.12-39.49-1.64-4.94,1.66-3.41,4.53-1.59,10.7,6.8,37.74,31.42,43.42,42.25,2.74,5.23,1.71,12.56,9.98,6.84,10.82-7.48.92-21.18-4.91-28.24-10.5-12.72-23.8-22.96-36.1-33.83-2.2-2.63,0-5.34,3.46-2.87,6.29,4.48,15.48,13.38,21.28,18.93,10.41,9.96,23.53,22.54,25.6,37.34,7.5,2.18,14.42-7.34,14.07-14.04-.15-2.84-3.96-8.62-5.63-11.3-10.4-16.7-24.73-28.57-39.91-40.68-.85-1.58-.26-3.26,1.58-3.53,12.98,9.66,27.17,21.52,36.82,34.65,4.28,5.82,9.4,17.1,14.06,21.49,8.12,7.65,14.27,1.25,12.7-8.62-2.4-15.14-28.61-42.44-39.77-53.48-7.99-7.91-25.49-26.06-35.73-28.38-11.21-2.54-27.05,4.67-38.34,7.37-7.06,1.69-15.49,3.58-22.69,4.11-16.14,1.19-32.21,3.27-48.36,4.09-27.44,1.39-59.36,1.74-86.87.61-1.68-.07-7.54.02-7.71-2.06l1.03-1.77c42.09-1.63,84.76,2.72,126.47-4.37-3.61-9.7,5.3-15.53,12.64-19.69,18.03-10.21,44.47-16.51,64.72-10.76,45.38,12.89,68.46,38.73,120.9,29.12,3.96-.73,9.55-2.89,13.15-3.19.86-.07,1.64.14,2.38.54ZM100.52,147.38c-6.62,1.52-7.49,15.84-6.77,21.1.78,5.69,5.85,10.72,11.82,10.2,5.32-.47,5.89-3.73,6.22-8.37.49-6.94-.1-25.49-11.27-22.92ZM130.13,149.31c-9.8-.22-14.56,16.72-14.86,24.46-.29,7.35,2.97,15.89,11.36,16.61,9.28.8,6.16-5.49,6.86-11.79.84-7.57,6.73-16.53,4.05-23.6-1.23-3.23-3.82-5.6-7.41-5.68ZM157.01,194.83c1.94-2.13,1.55-7.81,2.11-11,1.27-7.18,4.7-17.5-.16-24.05s-11.71-1.12-15.39,3.83c-5.56,7.47-9.7,23.02-2.57,30.45,4.01,4.18,11.9,5.28,16.01.76ZM182.89,191.56c.33,2.38-2.58,9.08-5,5.23-.66-1.05,1.96-9.51,2.08-11.93.59-11.76-10.22-16.28-15.29-4.8-2.51,5.68-4.03,16.58.9,21.19,7.71,7.2,23.22,2.21,31.85-.97-.97-2.54-13.06-9.98-14.55-8.72Z"/>
  <circle class="cls-2" cx="191.55" cy="135.35" r="132.85"/>
</svg>